G04 Layer_Color=25308*
%FSLAX44Y44*%
%MOMM*%
G71*
G01*
G75*
%ADD10R,0.4000X1.3500*%
%ADD11R,1.9000X1.9000*%
%ADD12R,1.4500X1.3000*%
%ADD13R,1.6000X1.4000*%
%ADD14R,1.2000X1.8000*%
%ADD15O,0.8500X0.2800*%
%ADD16O,0.2800X0.8500*%
%ADD17R,1.7000X1.7000*%
%ADD18R,1.2500X1.5500*%
%ADD19R,0.8500X0.9000*%
%ADD20R,1.4500X1.1500*%
%ADD21R,1.2500X0.8000*%
%ADD22R,0.9500X1.3500*%
%ADD23R,1.5500X1.2500*%
%ADD24R,1.3500X0.8500*%
%ADD25R,1.1500X1.4500*%
G04:AMPARAMS|DCode=26|XSize=1.016mm|YSize=1.397mm|CornerRadius=0.127mm|HoleSize=0mm|Usage=FLASHONLY|Rotation=180.000|XOffset=0mm|YOffset=0mm|HoleType=Round|Shape=RoundedRectangle|*
%AMROUNDEDRECTD26*
21,1,1.0160,1.1430,0,0,180.0*
21,1,0.7620,1.3970,0,0,180.0*
1,1,0.2540,-0.3810,0.5715*
1,1,0.2540,0.3810,0.5715*
1,1,0.2540,0.3810,-0.5715*
1,1,0.2540,-0.3810,-0.5715*
%
%ADD26ROUNDEDRECTD26*%
%ADD27R,1.3500X1.5500*%
%ADD29C,1.9050*%
%ADD30R,1.9050X1.9050*%
%ADD31O,2.1590X1.6510*%
%ADD32R,2.1590X1.6510*%
%ADD33R,2.0320X1.5240*%
%ADD34O,2.0320X1.5240*%
%ADD35R,1.7000X1.7000*%
%ADD36C,1.7000*%
%ADD37C,1.5240*%
%ADD38C,2.6416*%
%ADD39C,1.6000*%
D10*
X1812251Y997886D02*
D03*
X1818751D02*
D03*
X1825251D02*
D03*
X1831751D02*
D03*
X1838251D02*
D03*
D11*
X1813251Y1024636D02*
D03*
X1837251D02*
D03*
D12*
X1791001D02*
D03*
X1859501D02*
D03*
D13*
X1793251Y1000136D02*
D03*
X1857251D02*
D03*
D14*
X1719141Y984316D02*
D03*
Y1024316D02*
D03*
X1695141Y984316D02*
D03*
Y1024316D02*
D03*
D15*
X1614159Y928236D02*
D03*
Y933236D02*
D03*
Y938236D02*
D03*
Y943236D02*
D03*
X1643658D02*
D03*
Y938236D02*
D03*
Y933236D02*
D03*
Y928236D02*
D03*
D16*
X1621409Y950486D02*
D03*
X1626409D02*
D03*
X1631409D02*
D03*
X1636409D02*
D03*
Y920986D02*
D03*
X1631409D02*
D03*
X1626409D02*
D03*
X1621409D02*
D03*
D17*
X1628909Y935736D02*
D03*
D18*
X1505121Y950214D02*
D03*
X1525621D02*
D03*
D19*
X1678589Y922528D02*
D03*
X1665589D02*
D03*
X1584309Y940562D02*
D03*
X1597309D02*
D03*
X1589643Y964438D02*
D03*
X1602643D02*
D03*
D20*
X1538739Y978294D02*
D03*
Y995794D02*
D03*
D21*
X1558805Y996060D02*
D03*
Y980060D02*
D03*
D22*
X1663323Y939038D02*
D03*
X1678823D02*
D03*
D23*
X1647451Y883322D02*
D03*
Y903822D02*
D03*
D24*
X1625607Y905124D02*
D03*
Y888624D02*
D03*
D25*
X1594221Y923290D02*
D03*
X1576221D02*
D03*
D26*
X1740923Y1022350D02*
D03*
X1758703D02*
D03*
X1741177Y992378D02*
D03*
X1758957D02*
D03*
D27*
X1580551Y903732D02*
D03*
X1600051D02*
D03*
D29*
X1854969Y889000D02*
D03*
Y863600D02*
D03*
D30*
X1854970Y838201D02*
D03*
D31*
X661169Y914400D02*
D03*
Y889000D02*
D03*
Y863600D02*
D03*
Y838200D02*
D03*
D32*
Y939800D02*
D03*
D33*
X629177Y970894D02*
D03*
X694177D02*
D03*
D34*
X629177Y1015894D02*
D03*
X694177D02*
D03*
D35*
X1623675Y1017778D02*
D03*
D36*
X1598275D02*
D03*
X1572875D02*
D03*
D37*
X831222Y846328D02*
D03*
X1383672Y1006348D02*
D03*
D38*
X749053Y926338D02*
D03*
X1465841D02*
D03*
D39*
X1727207Y940816D02*
D03*
X1701807D02*
D03*
X1775213D02*
D03*
X1749813D02*
D03*
X1824743Y941324D02*
D03*
X1799343D02*
D03*
M02*
