G04 Layer_Color=13813960*
%FSLAX44Y44*%
%MOMM*%
G71*
G01*
G75*
%ADD28C,0.2540*%
%ADD49C,0.2500*%
%ADD50C,0.2000*%
%ADD51C,0.1270*%
%ADD94C,0.1500*%
D28*
X1772795Y839616D02*
G03*
X1772795Y839616I1000J0D01*
G01*
X1627523Y823854D02*
G03*
X1627523Y823854I1000J0D01*
G01*
X1543523Y818854D02*
Y828854D01*
X1633523Y818854D02*
X1543523D01*
X1633523D02*
Y823854D01*
Y828854D01*
X1543523Y898854D02*
Y908854D01*
X1633523D02*
X1543523D01*
X1633523Y898854D02*
Y908854D01*
X1493527Y1031748D02*
X721367D01*
X1493527Y822198D02*
Y1031748D01*
Y822198D02*
X721367D01*
Y1031748D01*
X1720096Y855474D02*
X1721366Y854204D01*
X1723905D01*
X1725175Y855474D01*
Y860552D01*
X1723905Y861822D01*
X1721366D01*
X1720096Y860552D01*
X1717557Y854204D02*
X1712479D01*
Y855474D01*
X1717557Y860552D01*
Y861822D01*
X1808997Y851406D02*
X1807727Y850137D01*
Y847598D01*
X1808997Y846328D01*
X1814075D01*
X1815345Y847598D01*
Y850137D01*
X1814075Y851406D01*
X1808997Y853945D02*
X1807727Y855215D01*
Y857754D01*
X1808997Y859024D01*
X1810266D01*
X1811536Y857754D01*
X1812806Y859024D01*
X1814075D01*
X1815345Y857754D01*
Y855215D01*
X1814075Y853945D01*
X1812806D01*
X1811536Y855215D01*
X1810266Y853945D01*
X1808997D01*
X1811536Y855215D02*
Y857754D01*
X1555506Y973583D02*
Y963426D01*
X1558045Y960887D01*
X1563124D01*
X1565663Y963426D01*
Y973583D01*
X1563124Y976122D01*
X1558045D01*
X1560584Y971044D02*
X1555506Y976122D01*
X1558045D02*
X1555506Y973583D01*
X1550428Y976122D02*
X1545349D01*
X1547888D01*
Y960887D01*
X1550428Y963426D01*
X1685043Y834136D02*
Y826518D01*
X1681234D01*
X1679964Y827788D01*
Y830327D01*
X1681234Y831597D01*
X1685043D01*
X1682504D02*
X1679964Y834136D01*
X1672347D02*
X1677425D01*
X1672347Y829058D01*
Y827788D01*
X1673616Y826518D01*
X1676156D01*
X1677425Y827788D01*
X1773181Y914146D02*
X1780798D01*
Y910337D01*
X1779529Y909068D01*
X1776989D01*
X1775720Y910337D01*
Y914146D01*
Y911607D02*
X1773181Y909068D01*
X1774450Y906528D02*
X1773181Y905259D01*
Y902720D01*
X1774450Y901450D01*
X1779529D01*
X1780798Y902720D01*
Y905259D01*
X1779529Y906528D01*
X1778259D01*
X1776989Y905259D01*
Y901450D01*
X1821949Y917956D02*
X1829566D01*
Y914147D01*
X1828297Y912878D01*
X1825757D01*
X1824488Y914147D01*
Y917956D01*
Y915417D02*
X1821949Y912878D01*
Y910339D02*
Y907799D01*
Y909069D01*
X1829566D01*
X1828297Y910339D01*
Y903990D02*
X1829566Y902721D01*
Y900182D01*
X1828297Y898912D01*
X1823218D01*
X1821949Y900182D01*
Y902721D01*
X1823218Y903990D01*
X1828297D01*
X1509529Y826770D02*
Y836927D01*
X1514607D01*
X1516300Y835234D01*
Y831848D01*
X1514607Y830156D01*
X1509529D01*
X1519686Y826770D02*
X1523071D01*
X1521378D01*
Y836927D01*
X1519686Y835234D01*
X1686059Y914400D02*
X1693676D01*
Y910591D01*
X1692407Y909322D01*
X1689868D01*
X1688598Y910591D01*
Y914400D01*
Y911861D02*
X1686059Y909322D01*
X1692407Y906783D02*
X1693676Y905513D01*
Y902974D01*
X1692407Y901704D01*
X1691137D01*
X1689868Y902974D01*
Y904243D01*
Y902974D01*
X1688598Y901704D01*
X1687328D01*
X1686059Y902974D01*
Y905513D01*
X1687328Y906783D01*
X1764623Y833879D02*
Y827532D01*
X1765893Y826262D01*
X1768432D01*
X1769701Y827532D01*
Y833879D01*
X1772240Y826262D02*
X1774780D01*
X1773510D01*
Y833879D01*
X1772240Y832610D01*
X1758195Y997712D02*
X1763273Y992634D01*
X1764543Y985016D02*
X1765812Y986286D01*
Y988825D01*
X1764543Y990095D01*
X1759464D01*
X1758195Y988825D01*
Y986286D01*
X1759464Y985016D01*
X1765812Y982477D02*
X1758195D01*
X1762003D01*
Y977399D01*
X1765812D01*
X1758195D01*
X1764543Y969781D02*
X1765812Y971051D01*
Y973590D01*
X1764543Y974859D01*
X1759464D01*
X1758195Y973590D01*
Y971051D01*
X1759464Y969781D01*
X1762003D01*
Y972320D01*
X1807725Y1012698D02*
X1812803Y1007620D01*
X1807725Y1005080D02*
X1815342D01*
Y1001272D01*
X1814073Y1000002D01*
X1811534D01*
X1810264Y1001272D01*
Y1005080D01*
X1814073Y992385D02*
X1815342Y993654D01*
Y996193D01*
X1814073Y997463D01*
X1808994D01*
X1807725Y996193D01*
Y993654D01*
X1808994Y992385D01*
X1811534D01*
Y994924D01*
X1815342Y986037D02*
Y988576D01*
X1814073Y989845D01*
X1808994D01*
X1807725Y988576D01*
Y986037D01*
X1808994Y984767D01*
X1814073D01*
X1815342Y986037D01*
Y978419D02*
Y980958D01*
X1814073Y982228D01*
X1808994D01*
X1807725Y980958D01*
Y978419D01*
X1808994Y977150D01*
X1814073D01*
X1815342Y978419D01*
Y974610D02*
X1807725D01*
Y970801D01*
X1808994Y969532D01*
X1814073D01*
X1815342Y970801D01*
Y974610D01*
X1142245Y917707D02*
Y932942D01*
X1134627D01*
X1132088Y930403D01*
Y927864D01*
X1134627Y925324D01*
X1142245D01*
X1134627D01*
X1132088Y922785D01*
Y920246D01*
X1134627Y917707D01*
X1142245D01*
X1127010Y932942D02*
Y922785D01*
X1121931Y917707D01*
X1116853Y922785D01*
Y932942D01*
Y925324D01*
X1127010D01*
X1111775Y917707D02*
X1101618D01*
X1106696D01*
Y932942D01*
X1096540D02*
X1091461D01*
X1094000D01*
Y917707D01*
X1096540Y920246D01*
X1717045Y989332D02*
X1718314Y990601D01*
Y993140D01*
X1717045Y994410D01*
X1715775D01*
X1714505Y993140D01*
Y990601D01*
X1713236Y989332D01*
X1711966D01*
X1710697Y990601D01*
Y993140D01*
X1711966Y994410D01*
X1717045Y981714D02*
X1718314Y982984D01*
Y985523D01*
X1717045Y986793D01*
X1711966D01*
X1710697Y985523D01*
Y982984D01*
X1711966Y981714D01*
X1718314Y979175D02*
X1710697D01*
X1713236D01*
X1718314Y974097D01*
X1714505Y977905D01*
X1710697Y974097D01*
Y971557D02*
Y969018D01*
Y970288D01*
X1718314D01*
X1717045Y971557D01*
X1420629Y926590D02*
X1410472D01*
X1415550Y931668D02*
Y921511D01*
X817887Y928622D02*
X807730D01*
X1689358Y963930D02*
Y953773D01*
X1694437Y958852D02*
X1684280D01*
X1742190Y964692D02*
Y954535D01*
X1747269Y959614D02*
X1737112D01*
X1793498Y963676D02*
Y953519D01*
X1798577Y958598D02*
X1788420D01*
D49*
X1655025Y1017778D02*
G03*
X1655025Y1017778I1250J0D01*
G01*
D50*
X1727624Y955245D02*
G03*
X1697899Y951036I-13117J-14429D01*
G01*
Y930596D02*
G03*
X1728295Y927027I16607J10220D01*
G01*
X1775630Y955245D02*
G03*
X1745905Y951036I-13117J-14429D01*
G01*
Y930596D02*
G03*
X1776301Y927027I16607J10220D01*
G01*
X1825160Y955753D02*
G03*
X1795435Y951544I-13117J-14429D01*
G01*
Y931104D02*
G03*
X1825831Y927535I16607J10220D01*
G01*
X1649775Y990828D02*
Y1039828D01*
X1546775Y990828D02*
Y1039828D01*
X1649775D02*
X1546775D01*
X1649775Y990828D02*
X1546775D01*
X1649775Y995828D02*
X1546775D01*
X1754115Y902054D02*
X1752115D01*
X1754115Y914554D02*
X1752115D01*
X1801866Y914046D02*
X1799866D01*
X1801866Y901546D02*
X1799866D01*
X1712966Y901800D02*
X1710966D01*
X1712966Y914300D02*
X1710966D01*
X1728477Y950976D02*
Y954392D01*
Y927027D02*
Y930656D01*
Y954392D02*
X1727624Y955245D01*
X1776483Y950976D02*
Y954392D01*
Y927027D02*
Y930656D01*
Y954392D02*
X1775630Y955245D01*
X1826013Y951484D02*
Y954900D01*
Y927535D02*
Y931164D01*
Y954900D02*
X1825160Y955753D01*
D51*
X1829969Y852456D02*
Y856456D01*
X1816469Y852456D02*
Y856456D01*
X1692771Y856012D02*
Y860012D01*
X1706271Y856012D02*
Y860012D01*
D94*
X1718794Y839617D02*
Y842617D01*
X1721794Y839617D02*
X1718794D01*
X1721797Y889618D02*
X1718797D01*
Y886618D02*
Y889618D01*
X1768797Y886616D02*
Y889616D01*
X1765797D01*
X1768795Y839616D02*
Y842616D01*
Y839616D02*
X1765795D01*
X1768795Y842616D02*
X1765795Y839616D01*
M02*
