G04 Layer_Color=25308*
%FSLAX44Y44*%
%MOMM*%
G71*
G01*
G75*
%ADD23R,1.5500X1.2500*%
%ADD29C,1.9050*%
%ADD30R,1.9050X1.9050*%
%ADD31O,2.1590X1.6510*%
%ADD32R,2.1590X1.6510*%
%ADD33R,2.0320X1.5240*%
%ADD34O,2.0320X1.5240*%
%ADD35R,1.7000X1.7000*%
%ADD36C,1.7000*%
%ADD37C,1.5240*%
%ADD38C,2.6416*%
%ADD39C,1.6000*%
%ADD42R,3.3000X3.3000*%
%ADD43R,0.3000X0.8000*%
%ADD44R,0.8000X0.3000*%
%ADD45R,3.1000X1.0000*%
%ADD46R,0.8000X1.2500*%
%ADD47R,1.0500X1.4500*%
D23*
X1823219Y864706D02*
D03*
Y844206D02*
D03*
X1699521Y847762D02*
D03*
Y868262D02*
D03*
D29*
X1854969Y889000D02*
D03*
Y863600D02*
D03*
D30*
X1854970Y838201D02*
D03*
D31*
X661169Y914400D02*
D03*
Y889000D02*
D03*
Y863600D02*
D03*
Y838200D02*
D03*
D32*
Y939800D02*
D03*
D33*
X629177Y970894D02*
D03*
X694177D02*
D03*
D34*
X629177Y1015894D02*
D03*
X694177D02*
D03*
D35*
X1623675Y1017778D02*
D03*
D36*
X1598275D02*
D03*
X1572875D02*
D03*
D37*
X831222Y846328D02*
D03*
X1383672Y1006348D02*
D03*
D38*
X749053Y926338D02*
D03*
X1465841D02*
D03*
D39*
X1727207Y940816D02*
D03*
X1701807D02*
D03*
X1775213D02*
D03*
X1749813D02*
D03*
X1824743Y941324D02*
D03*
X1799343D02*
D03*
D42*
X1743795Y864616D02*
D03*
D43*
X1761295Y839616D02*
D03*
X1756295D02*
D03*
X1751295D02*
D03*
X1746295D02*
D03*
X1741295D02*
D03*
X1736295D02*
D03*
X1731295D02*
D03*
X1726295D02*
D03*
Y889616D02*
D03*
X1731295D02*
D03*
X1736295D02*
D03*
X1741295D02*
D03*
X1746295D02*
D03*
X1751295D02*
D03*
X1756295D02*
D03*
X1761295D02*
D03*
D44*
X1718795Y847116D02*
D03*
Y852116D02*
D03*
Y857116D02*
D03*
Y862116D02*
D03*
Y867116D02*
D03*
Y872116D02*
D03*
Y877116D02*
D03*
Y882116D02*
D03*
X1768795D02*
D03*
Y877116D02*
D03*
Y872116D02*
D03*
Y867116D02*
D03*
Y862116D02*
D03*
Y857116D02*
D03*
Y852116D02*
D03*
Y847116D02*
D03*
D45*
X1615523Y838453D02*
D03*
Y863853D02*
D03*
Y889253D02*
D03*
X1561524D02*
D03*
Y863853D02*
D03*
Y838453D02*
D03*
D46*
X1708029Y830326D02*
D03*
X1692029D02*
D03*
D47*
X1762365Y908304D02*
D03*
X1743865D02*
D03*
X1791617Y907796D02*
D03*
X1810117D02*
D03*
X1721217Y908050D02*
D03*
X1702717D02*
D03*
M02*
