M48
;Layer_Color=6321
;FILE_FORMAT=2:5
INCH,LZ
;TYPE=PLATED
T1F00S00C0.00787
T2F00S00C0.01000
T3F00S00C0.03150
T4F00S00C0.03937
T5F00S00C0.04000
T6F00S00C0.04331
T7F00S00C0.05200
T8F00S00C0.13600
%
T01
X03466Y0366431
X03478Y03672
X03466Y0370369
X0350968
T02
X0291Y03277
X02959Y03257
X02952Y03512
X029125Y034838
X02843Y034815
X02866Y03434
X02881Y0357
X03107Y03529
X03048Y03947
X0313476Y03985
X03285Y03864
X03403Y03754
X03399Y03694
X0346001Y03578
X0348Y03597
X03502Y03598
X03581Y03608
X0366Y0364
X0361041Y0376678
X03611Y03859
X036591Y038585
X03818Y03784
X03886Y0385155
X0388645Y0392
X03917Y03534
X0397735Y03433
X03829Y03301
X03846Y03242
X03335Y03301
X03268Y03255
X03417Y0341835
X035Y03771
X03151Y03646
T03
X026Y033
X026Y034
Y035
T04
X02719Y03706
X02819
X02914Y03704
X03014
X03103
X03203
X0717005Y0382242
Y0399958
X0742595
Y0382242
T05
X073Y033
Y034
Y035
Y036
Y037
T06
X0351061Y04007
X0361061
X0371061
T07
X04132Y03647
X06954
T08
X044555Y03962
X066305Y03332
M30
