G04 Layer_Physical_Order=2*
G04 Layer_Color=11436288*
%FSLAX44Y44*%
%MOMM*%
G71*
G01*
G75*
%ADD23R,1.5500X1.2500*%
%ADD28C,0.2540*%
%ADD29C,1.9050*%
%ADD30R,1.9050X1.9050*%
%ADD31O,2.1590X1.6510*%
%ADD32R,2.1590X1.6510*%
%ADD33R,2.0320X1.5240*%
%ADD34O,2.0320X1.5240*%
%ADD35R,1.7000X1.7000*%
%ADD36C,1.7000*%
%ADD37C,1.5240*%
%ADD38C,2.6416*%
%ADD39C,1.6000*%
%ADD40C,0.3810*%
%ADD41C,0.5000*%
%ADD42R,3.3000X3.3000*%
%ADD43R,0.3000X0.8000*%
%ADD44R,0.8000X0.3000*%
%ADD45R,3.1000X1.0000*%
%ADD46R,0.8000X1.2500*%
%ADD47R,1.0500X1.4500*%
G36*
X1789496Y936225D02*
Y931418D01*
X1789260Y930229D01*
X1788586Y929221D01*
X1775886Y916520D01*
X1774878Y915847D01*
X1773689Y915610D01*
X1769393D01*
Y911412D01*
X1776737D01*
X1776790Y911401D01*
X1776843Y911410D01*
X1783319Y911189D01*
X1784589Y912079D01*
Y916824D01*
X1798645D01*
Y900490D01*
X1803089D01*
Y916824D01*
X1807009D01*
Y929263D01*
X1803719Y932553D01*
X1801895Y931798D01*
X1799343Y931462D01*
X1796790Y931798D01*
X1794412Y932783D01*
X1792369Y934350D01*
X1790802Y936393D01*
X1790766Y936478D01*
X1789496Y936225D01*
D02*
G37*
G36*
X1863030Y880939D02*
X1860669Y879127D01*
X1857919Y877988D01*
X1854969Y877599D01*
X1852018Y877988D01*
X1849426Y879062D01*
X1832872Y862508D01*
X1832747Y862425D01*
Y856678D01*
X1815741D01*
X1815255Y855505D01*
X1817006Y853754D01*
X1821949D01*
Y845476D01*
X1812929D01*
Y849041D01*
X1807961Y854008D01*
X1795431D01*
X1794945Y852835D01*
X1811659Y836121D01*
X1812929Y836647D01*
Y842936D01*
X1821949D01*
Y835416D01*
X1814160D01*
X1813634Y834146D01*
X1824506Y823274D01*
X1863842D01*
X1865531Y824963D01*
X1865045Y826136D01*
X1856240D01*
Y836931D01*
X1867035D01*
Y829052D01*
X1868305Y828419D01*
X1868752Y828756D01*
Y871329D01*
X1867579Y871815D01*
X1864907Y869143D01*
X1865981Y866551D01*
X1866369Y863600D01*
X1865981Y860649D01*
X1864842Y857900D01*
X1863030Y855539D01*
X1860669Y853727D01*
X1857919Y852588D01*
X1854969Y852199D01*
X1852018Y852588D01*
X1849268Y853727D01*
X1846907Y855539D01*
X1845096Y857900D01*
X1843957Y860649D01*
X1843568Y863600D01*
X1843957Y866551D01*
X1845096Y869300D01*
X1846907Y871661D01*
X1849268Y873473D01*
X1852018Y874612D01*
X1854969Y875001D01*
X1857919Y874612D01*
X1860512Y873538D01*
X1864434Y877460D01*
Y880793D01*
X1863231Y881201D01*
X1863030Y880939D01*
D02*
G37*
G36*
X1712261Y952029D02*
X1717163Y947127D01*
X1717232Y947078D01*
X1718733Y947087D01*
X1719690Y948333D01*
X1721891Y950023D01*
X1724455Y951085D01*
X1725937Y951280D01*
Y940816D01*
Y930352D01*
X1724455Y930547D01*
X1721891Y931609D01*
X1719690Y933299D01*
X1719325Y933774D01*
X1718123Y933365D01*
Y928062D01*
X1718484Y927521D01*
X1718770Y926084D01*
X1718484Y924647D01*
X1718203Y924225D01*
X1718881Y922955D01*
X1729309D01*
X1730499Y922719D01*
X1731507Y922045D01*
X1733493Y920060D01*
X1734166Y919051D01*
X1734403Y917862D01*
Y895394D01*
X1748187D01*
Y897890D01*
X1748210Y898006D01*
X1747168Y899276D01*
X1736837D01*
Y917332D01*
X1740757D01*
Y934868D01*
X1740993Y936057D01*
X1741121Y936248D01*
X1740286Y938263D01*
X1739950Y940816D01*
X1740286Y943369D01*
X1741272Y945747D01*
X1742839Y947790D01*
X1744882Y949357D01*
X1747260Y950342D01*
X1749813Y950678D01*
X1752365Y950342D01*
X1754744Y949357D01*
X1756786Y947790D01*
X1758354Y945747D01*
X1759339Y943369D01*
X1759675Y940816D01*
X1759339Y938263D01*
X1758354Y935885D01*
X1756786Y933842D01*
X1754744Y932275D01*
X1752365Y931290D01*
X1749813Y930954D01*
X1748242Y931160D01*
X1746972Y930101D01*
Y917332D01*
X1750137D01*
X1750155Y917359D01*
X1753711Y920916D01*
X1754720Y921589D01*
X1755909Y921826D01*
X1772401D01*
X1782782Y932207D01*
X1782672Y932614D01*
X1781223Y933103D01*
X1780144Y932275D01*
X1777765Y931290D01*
X1775213Y930954D01*
X1772660Y931290D01*
X1770282Y932275D01*
X1768239Y933842D01*
X1766672Y935885D01*
X1765686Y938263D01*
X1765350Y940816D01*
X1765686Y943369D01*
X1766442Y945192D01*
X1758432Y953202D01*
X1712747D01*
X1712261Y952029D01*
D02*
G37*
G36*
X615137Y898997D02*
X616973Y819150D01*
X797141D01*
X797266Y820420D01*
X796377Y820597D01*
X795369Y821271D01*
X756148Y860492D01*
X673281D01*
X672473Y858540D01*
X670864Y856444D01*
X668768Y854836D01*
X666328Y853825D01*
X663709Y853480D01*
X658629D01*
X656010Y853825D01*
X653569Y854836D01*
X651577Y856365D01*
X650789Y856212D01*
X650306Y856048D01*
Y845752D01*
X650789Y845588D01*
X651577Y845435D01*
X653569Y846964D01*
X656010Y847975D01*
X658629Y848320D01*
X663709D01*
X666328Y847975D01*
X668768Y846964D01*
X670864Y845356D01*
X672473Y843260D01*
X673484Y840819D01*
X673828Y838200D01*
X673484Y835581D01*
X672473Y833140D01*
X670864Y831044D01*
X668768Y829436D01*
X666328Y828425D01*
X663709Y828080D01*
X658629D01*
X656010Y828425D01*
X653569Y829436D01*
X651473Y831044D01*
X649865Y833140D01*
X648854Y835581D01*
X648625Y837322D01*
X646643Y837682D01*
X646335Y837804D01*
X646010Y837869D01*
X645776Y838025D01*
X645515Y838128D01*
X645277Y838358D01*
X645001Y838542D01*
X644845Y838776D01*
X644644Y838971D01*
X644512Y839275D01*
X644328Y839551D01*
X644273Y839826D01*
X644161Y840083D01*
X644156Y840415D01*
X644091Y840740D01*
Y868680D01*
X644328Y869869D01*
X645001Y870878D01*
X651351Y877227D01*
X652359Y877901D01*
X653549Y878138D01*
X655316D01*
X655569Y879408D01*
X653569Y880236D01*
X651473Y881844D01*
X649865Y883940D01*
X649056Y885892D01*
X631197D01*
X630008Y886129D01*
X628999Y886803D01*
X616305Y899497D01*
X615137Y898997D01*
D02*
G37*
G36*
X1578802Y866961D02*
X1580650D01*
X1581839Y866724D01*
X1582847Y866050D01*
X1588180Y860717D01*
X1588854Y859709D01*
X1589091Y858520D01*
Y826787D01*
X1592096Y823782D01*
X1681337D01*
X1682015Y825052D01*
X1681827Y825333D01*
X1681542Y826770D01*
X1681827Y828207D01*
X1682641Y829425D01*
X1683860Y830239D01*
X1684498Y830366D01*
X1686251Y832119D01*
Y838354D01*
X1689754D01*
X1689863Y838518D01*
X1689993Y839734D01*
X1689993D01*
Y844654D01*
X1658463D01*
X1657273Y844891D01*
X1656265Y845565D01*
X1634071Y867759D01*
X1632801Y867233D01*
Y857075D01*
X1598245D01*
Y868874D01*
X1578802D01*
Y866961D01*
D02*
G37*
G36*
X1821098Y895184D02*
X1820090Y894511D01*
X1818901Y894274D01*
X1769914D01*
X1769126Y893004D01*
X1769316Y892048D01*
X1769030Y890611D01*
X1768216Y889393D01*
X1766998Y888579D01*
X1765561Y888293D01*
X1765555Y888294D01*
X1764573Y887488D01*
Y885394D01*
X1771708D01*
X1771998Y885684D01*
X1772124Y886322D01*
X1772939Y887541D01*
X1774157Y888354D01*
X1775594Y888640D01*
X1777031Y888354D01*
X1778249Y887541D01*
X1779063Y886322D01*
X1779349Y884885D01*
X1779063Y883448D01*
X1778249Y882230D01*
X1778145Y882161D01*
X1777837Y880434D01*
X1777988Y880224D01*
X1784774D01*
X1789651Y885100D01*
X1789777Y885738D01*
X1790591Y886956D01*
X1791810Y887770D01*
X1793247Y888056D01*
X1794684Y887770D01*
X1795902Y886956D01*
X1796716Y885738D01*
X1797002Y884301D01*
X1796716Y882864D01*
X1795902Y881646D01*
X1794684Y880832D01*
X1794045Y880705D01*
X1789954Y876614D01*
X1790480Y875344D01*
X1823219D01*
X1824408Y875107D01*
X1825416Y874434D01*
X1826090Y873425D01*
X1826227Y872734D01*
X1832747D01*
X1832747Y872734D01*
Y872734D01*
X1833851Y872277D01*
X1845031Y883457D01*
X1843957Y886049D01*
X1843568Y889000D01*
X1843957Y891951D01*
X1845096Y894700D01*
X1846907Y897061D01*
X1847335Y897390D01*
X1846927Y898592D01*
X1824506D01*
X1821098Y895184D01*
D02*
G37*
G36*
X1648857Y901760D02*
X1649078Y900882D01*
X1649345Y900490D01*
X1695689D01*
Y917078D01*
X1699609D01*
Y922511D01*
X1698936Y923519D01*
X1698699Y924708D01*
Y931520D01*
X1696876Y932275D01*
X1694833Y933842D01*
X1693266Y935885D01*
X1692280Y938263D01*
X1691944Y940816D01*
X1692280Y943369D01*
X1692293Y943399D01*
X1691217Y944119D01*
X1648857Y901760D01*
D02*
G37*
G36*
X1578802Y882475D02*
X1544246D01*
Y893279D01*
X1543073Y893765D01*
X1539158Y889850D01*
X1538150Y889177D01*
X1536961Y888940D01*
X930934D01*
X914826Y872832D01*
X913818Y872159D01*
X912629Y871922D01*
X671260D01*
X671097Y871440D01*
X670944Y870652D01*
X672473Y868660D01*
X673281Y866708D01*
X757435D01*
X758624Y866471D01*
X759632Y865798D01*
X798854Y826576D01*
X826336D01*
X826525Y827846D01*
X823896Y828643D01*
X820587Y830412D01*
X817686Y832792D01*
X815306Y835693D01*
X813537Y839003D01*
X812447Y842594D01*
X812080Y846328D01*
X812447Y850062D01*
X813537Y853653D01*
X815306Y856963D01*
X817686Y859864D01*
X820587Y862244D01*
X823896Y864013D01*
X827487Y865102D01*
X831222Y865470D01*
X834956Y865102D01*
X838547Y864013D01*
X841857Y862244D01*
X844757Y859864D01*
X847138Y856963D01*
X848907Y853653D01*
X849996Y850062D01*
X850364Y846328D01*
X849996Y842594D01*
X848907Y839003D01*
X847138Y835693D01*
X844757Y832792D01*
X841857Y830412D01*
X838547Y828643D01*
X835919Y827846D01*
X836107Y826576D01*
X1536507D01*
X1537048Y826937D01*
X1538485Y827223D01*
X1539922Y826937D01*
X1541140Y826123D01*
X1541954Y824905D01*
X1542240Y823468D01*
X1541954Y822031D01*
X1541140Y820813D01*
X1540552Y820420D01*
X1540938Y819150D01*
X1586278D01*
X1586764Y820323D01*
X1583785Y823303D01*
X1583381Y823907D01*
X1583112Y824311D01*
X1582875Y825500D01*
Y857233D01*
X1580072Y860036D01*
X1578802Y859510D01*
Y857075D01*
X1544246D01*
Y868874D01*
X1507099D01*
X1506558Y868513D01*
X1505121Y868227D01*
X1503684Y868513D01*
X1502466Y869327D01*
X1501651Y870545D01*
X1501366Y871982D01*
X1501651Y873419D01*
X1502466Y874637D01*
X1503684Y875451D01*
X1505121Y875737D01*
X1506558Y875451D01*
X1507099Y875090D01*
X1634243D01*
X1635432Y874853D01*
X1636440Y874180D01*
X1641746Y868874D01*
X1643124Y869292D01*
X1643264Y869996D01*
X1644246Y871467D01*
X1645716Y872449D01*
X1646181Y872541D01*
Y868262D01*
X1648721D01*
Y872541D01*
X1649185Y872449D01*
X1650655Y871467D01*
X1650720Y871370D01*
X1689231D01*
Y877052D01*
X1698251D01*
Y868262D01*
Y859472D01*
X1689231D01*
Y865154D01*
X1650720D01*
X1650655Y865057D01*
X1649185Y864075D01*
X1648481Y863935D01*
X1648063Y862557D01*
X1659750Y850870D01*
X1689993D01*
Y855790D01*
X1708512D01*
Y859472D01*
X1700791D01*
Y868262D01*
Y877052D01*
X1707567D01*
X1707977Y877809D01*
X1707239Y879008D01*
X1615447D01*
X1614258Y879245D01*
X1613249Y879919D01*
X1612576Y880927D01*
X1612339Y882116D01*
Y882475D01*
X1598245D01*
Y894274D01*
X1578802D01*
Y882475D01*
D02*
G37*
G36*
X1715329Y897382D02*
X1715092Y896193D01*
X1714418Y895184D01*
X1713410Y894511D01*
X1712221Y894274D01*
X1632801D01*
Y885224D01*
X1713017D01*
Y885394D01*
X1717678D01*
X1718109Y885826D01*
Y899022D01*
X1715329D01*
Y897382D01*
D02*
G37*
G36*
X639926Y1011154D02*
X638420Y1009191D01*
X636456Y1007685D01*
X634170Y1006738D01*
X631717Y1006415D01*
X626637D01*
X624184Y1006738D01*
X621897Y1007685D01*
X620335Y1008884D01*
X619064Y1008351D01*
Y981054D01*
X627907D01*
Y970894D01*
X629177D01*
Y969624D01*
X641877D01*
Y960734D01*
X632285D01*
Y956327D01*
X645704Y942908D01*
X647834D01*
Y950595D01*
X659899D01*
Y939800D01*
Y929005D01*
X647834D01*
Y936692D01*
X644417D01*
X643228Y936929D01*
X642219Y937602D01*
X626979Y952842D01*
X626306Y953851D01*
X626069Y955040D01*
Y960734D01*
X619064D01*
Y905527D01*
X632484Y892108D01*
X649056D01*
X649865Y894060D01*
X651473Y896156D01*
X653569Y897764D01*
X656010Y898775D01*
X658629Y899120D01*
X663709D01*
X666328Y898775D01*
X668768Y897764D01*
X670864Y896156D01*
X672473Y894060D01*
X673484Y891619D01*
X673828Y889000D01*
X673484Y886381D01*
X672473Y883940D01*
X670864Y881844D01*
X668768Y880236D01*
X666768Y879408D01*
X667021Y878138D01*
X911341D01*
X926462Y893258D01*
X925936Y894528D01*
X777755D01*
X776565Y894765D01*
X775557Y895439D01*
X757825Y913170D01*
X755108Y911718D01*
X752140Y910818D01*
X750323Y910639D01*
Y925068D01*
X764752D01*
X764573Y923251D01*
X763672Y920282D01*
X762220Y917566D01*
X779042Y900744D01*
X1517181D01*
X1517246Y900841D01*
X1518716Y901823D01*
X1519181Y901915D01*
Y897636D01*
X1520451D01*
Y896366D01*
X1524780D01*
X1525551Y895156D01*
X1535674D01*
X1546447Y905929D01*
X1547455Y906603D01*
X1548645Y906840D01*
X1632003D01*
X1632806Y907857D01*
X1632833Y908110D01*
X1630963Y909979D01*
X1630012Y910169D01*
X1629754Y910341D01*
X1629521Y910497D01*
X1629520Y910497D01*
X1628793Y910983D01*
X1627620Y910638D01*
X1627298Y910423D01*
X1625861Y910137D01*
X1624424Y910423D01*
X1623206Y911237D01*
X1622391Y912455D01*
X1622265Y913093D01*
X1613905Y921452D01*
X1587707D01*
X1587166Y921091D01*
X1585729Y920805D01*
X1584292Y921091D01*
X1583073Y921905D01*
X1582259Y923123D01*
X1582133Y923761D01*
X1557771Y948122D01*
X1547375D01*
X1546185Y948359D01*
X1545177Y949033D01*
X1531207Y963002D01*
X1530534Y964011D01*
X1530297Y965200D01*
Y973771D01*
X1529280Y974574D01*
X1529027Y974602D01*
X1482770Y928345D01*
X1482621Y928245D01*
X1482504Y928108D01*
X1482121Y927911D01*
X1481762Y927671D01*
X1481586Y927636D01*
X1481426Y927554D01*
X1480797Y927374D01*
X1480899Y926338D01*
X1480610Y923400D01*
X1479824Y920810D01*
X1480421Y919540D01*
X1603817D01*
X1604358Y919901D01*
X1605795Y920187D01*
X1607232Y919901D01*
X1608450Y919087D01*
X1609264Y917869D01*
X1609550Y916432D01*
X1609264Y914995D01*
X1608450Y913777D01*
X1607232Y912963D01*
X1605795Y912677D01*
X1604358Y912963D01*
X1603817Y913324D01*
X1475747D01*
X1474557Y913561D01*
X1474188Y913807D01*
X1471603Y912426D01*
X1468779Y911569D01*
X1465841Y911280D01*
X1462903Y911569D01*
X1460078Y912426D01*
X1457475Y913817D01*
X1455193Y915690D01*
X1453320Y917972D01*
X1451929Y920575D01*
X1451072Y923400D01*
X1450782Y926338D01*
X1451072Y929276D01*
X1451929Y932101D01*
X1453320Y934704D01*
X1455193Y936986D01*
X1457475Y938859D01*
X1460078Y940250D01*
X1462903Y941107D01*
X1465841Y941396D01*
X1468779Y941107D01*
X1471603Y940250D01*
X1474207Y938859D01*
X1476489Y936986D01*
X1478362Y934704D01*
X1478548Y934355D01*
X1479804Y934169D01*
X1524729Y979093D01*
X1524782Y979364D01*
X1524048Y980634D01*
X747783D01*
X746593Y980871D01*
X745585Y981544D01*
X714344Y1012786D01*
X705602D01*
X704926Y1011154D01*
X703419Y1009191D01*
X701456Y1007685D01*
X699170Y1006738D01*
X696717Y1006415D01*
X691637D01*
X689183Y1006738D01*
X686897Y1007685D01*
X684934Y1009191D01*
X683427Y1011154D01*
X682751Y1012786D01*
X640602D01*
X639926Y1011154D01*
D02*
G37*
G36*
X703785Y1023831D02*
X703515Y1023030D01*
X703447Y1022560D01*
X704926Y1020633D01*
X705602Y1019001D01*
X715631D01*
X716820Y1018765D01*
X717828Y1018091D01*
X749070Y986850D01*
X1377949D01*
X1378137Y988120D01*
X1376346Y988663D01*
X1373037Y990432D01*
X1370136Y992812D01*
X1367756Y995713D01*
X1365987Y999023D01*
X1364897Y1002614D01*
X1364530Y1006348D01*
X1364897Y1010082D01*
X1365987Y1013673D01*
X1367756Y1016983D01*
X1370136Y1019884D01*
X1373037Y1022264D01*
X1376346Y1024033D01*
X1378817Y1024783D01*
X1378627Y1026052D01*
X703785Y1023831D01*
D02*
G37*
G36*
X1777068Y847738D02*
X1786627Y834425D01*
X1786775Y834099D01*
X1786974Y833801D01*
X1787023Y833552D01*
X1787129Y833320D01*
X1787141Y832963D01*
X1787211Y832612D01*
X1787161Y832363D01*
X1787169Y832109D01*
X1787044Y831774D01*
X1786974Y831423D01*
X1786833Y831211D01*
X1786743Y830973D01*
X1786499Y830712D01*
X1786300Y830415D01*
X1780966Y825080D01*
X1779958Y824407D01*
X1778769Y824170D01*
X1765761D01*
X1765220Y823809D01*
X1763783Y823523D01*
X1762346Y823809D01*
X1761127Y824623D01*
X1760313Y825841D01*
X1760028Y827278D01*
X1760205Y828172D01*
X1760106Y829487D01*
X1759098Y830161D01*
X1758424Y831169D01*
X1758187Y832358D01*
Y833838D01*
X1749403D01*
Y833120D01*
X1749166Y831931D01*
X1748492Y830922D01*
X1745698Y828129D01*
X1744690Y827455D01*
X1743501Y827218D01*
X1713807D01*
Y822298D01*
X1711136D01*
Y820901D01*
X1711041Y820420D01*
X1711936Y819150D01*
X1818180D01*
X1818667Y820323D01*
X1789981Y849008D01*
X1777719D01*
X1777068Y847738D01*
D02*
G37*
G36*
X638998Y1023618D02*
X638612Y1022346D01*
X639926Y1020633D01*
X640602Y1019001D01*
X682751D01*
X683427Y1020633D01*
X684859Y1022499D01*
X684720Y1023222D01*
X684534Y1023768D01*
X638998Y1023618D01*
D02*
G37*
G36*
X1388608Y1026085D02*
X1388422Y1024814D01*
X1390997Y1024033D01*
X1394307Y1022264D01*
X1397207Y1019884D01*
X1399588Y1016983D01*
X1401357Y1013673D01*
X1402446Y1010082D01*
X1402814Y1006348D01*
X1402446Y1002614D01*
X1401357Y999023D01*
X1399588Y995713D01*
X1397207Y992812D01*
X1394307Y990432D01*
X1390997Y988663D01*
X1389206Y988120D01*
X1389395Y986850D01*
X1514986D01*
X1524615Y996479D01*
X1524742Y997117D01*
X1525556Y998335D01*
X1526774Y999149D01*
X1528211Y999435D01*
X1529648Y999149D01*
X1530189Y998788D01*
X1574890D01*
X1589121Y1013019D01*
X1588261Y1015095D01*
X1587908Y1017778D01*
X1588261Y1020461D01*
X1589297Y1022961D01*
X1590945Y1025108D01*
X1591332Y1025406D01*
X1590924Y1026608D01*
X1581439D01*
X1580989Y1025338D01*
X1582518Y1023346D01*
X1583631Y1020660D01*
X1583843Y1019048D01*
X1561907D01*
X1562119Y1020660D01*
X1563231Y1023346D01*
X1564760Y1025338D01*
X1564311Y1026608D01*
X1547631D01*
X1388608Y1026085D01*
D02*
G37*
G36*
X611932Y1038424D02*
X612279Y1023347D01*
X613557Y1022975D01*
X613759Y1023278D01*
X619347Y1028866D01*
X619849Y1029201D01*
X620346Y1029535D01*
X620351Y1029536D01*
X620355Y1029539D01*
X620949Y1029657D01*
X621535Y1029776D01*
X1547619Y1032824D01*
X1547624Y1032823D01*
X1547629Y1032824D01*
X1785627D01*
X1786816Y1032587D01*
X1787824Y1031914D01*
X1872591Y947146D01*
X1873765Y947632D01*
Y1035304D01*
X616719D01*
X613100Y1038923D01*
X611932Y1038424D01*
D02*
G37*
G36*
X1605218Y1025406D02*
X1605605Y1025108D01*
X1607253Y1022961D01*
X1608288Y1020461D01*
X1608642Y1017778D01*
X1608288Y1015095D01*
X1607253Y1012595D01*
X1605605Y1010448D01*
X1603458Y1008800D01*
X1600958Y1007765D01*
X1598275Y1007411D01*
X1595592Y1007765D01*
X1593516Y1008624D01*
X1578374Y993483D01*
X1577366Y992809D01*
X1576177Y992572D01*
X1530189D01*
X1529648Y992211D01*
X1529010Y992084D01*
X1524949Y988023D01*
X1525435Y986850D01*
X1530103D01*
X1531292Y986613D01*
X1532300Y985939D01*
X1535602Y982637D01*
X1536276Y981629D01*
X1536512Y980440D01*
Y966487D01*
X1540813Y962187D01*
X1542014Y962467D01*
X1542166Y962630D01*
X1542941Y963791D01*
X1544160Y964605D01*
X1545597Y964891D01*
X1547034Y964605D01*
X1547575Y964244D01*
X1598325D01*
X1599514Y964007D01*
X1600523Y963334D01*
X1601196Y962325D01*
X1601433Y961136D01*
Y960942D01*
X1624391D01*
X1624932Y961303D01*
X1626369Y961589D01*
X1627806Y961303D01*
X1629024Y960489D01*
X1629838Y959271D01*
X1629965Y958633D01*
X1647214Y941384D01*
X1650045D01*
X1650586Y941745D01*
X1652023Y942031D01*
X1653460Y941745D01*
X1654678Y940931D01*
X1655492Y939713D01*
X1655778Y938276D01*
X1655492Y936839D01*
X1654678Y935621D01*
X1653460Y934807D01*
X1652023Y934521D01*
X1650586Y934807D01*
X1650045Y935168D01*
X1645927D01*
X1644738Y935405D01*
X1643729Y936078D01*
X1640963Y938844D01*
X1639548Y938464D01*
X1638638Y937103D01*
X1637736Y936500D01*
Y934972D01*
X1638638Y934369D01*
X1639752Y932702D01*
X1639891Y932006D01*
X1635005D01*
Y930736D01*
X1633735D01*
Y925850D01*
X1633038Y925988D01*
X1631371Y927102D01*
X1630937Y927752D01*
X1629990Y927940D01*
X1628323Y929054D01*
X1627209Y930722D01*
X1627071Y931418D01*
X1631957D01*
Y933958D01*
X1627071D01*
X1627209Y934654D01*
X1628052Y935915D01*
X1627136Y936831D01*
X1625876Y935989D01*
X1625179Y935850D01*
Y940736D01*
Y945622D01*
X1625876Y945484D01*
X1627543Y944370D01*
X1628657Y942703D01*
X1628809Y941934D01*
X1630104D01*
X1630257Y942703D01*
X1631371Y944370D01*
X1632732Y945279D01*
X1633113Y946695D01*
X1625570Y954238D01*
X1624932Y954365D01*
X1624391Y954726D01*
X1601394D01*
X1600980Y954107D01*
X1599762Y953293D01*
X1598325Y953008D01*
X1596888Y953293D01*
X1595670Y954107D01*
X1594856Y955326D01*
X1594570Y956763D01*
X1594626Y957047D01*
X1593821Y958028D01*
X1547575D01*
X1547091Y957705D01*
X1546928Y957553D01*
X1546647Y956352D01*
X1548662Y954338D01*
X1559059D01*
X1560248Y954101D01*
X1561256Y953428D01*
X1586527Y928156D01*
X1587166Y928029D01*
X1587707Y927668D01*
X1615193D01*
X1616382Y927431D01*
X1617390Y926758D01*
X1626659Y917488D01*
X1627298Y917361D01*
X1627789Y917033D01*
X1628516Y916547D01*
X1629690Y916892D01*
X1630012Y917107D01*
X1631449Y917393D01*
X1632886Y917107D01*
X1634104Y916293D01*
X1634918Y915075D01*
X1634983Y914750D01*
X1637324Y912408D01*
X1637963Y912281D01*
X1639181Y911467D01*
X1639995Y910249D01*
X1640281Y908812D01*
X1640141Y908110D01*
X1641048Y906840D01*
X1645148D01*
X1690337Y952029D01*
X1689851Y953202D01*
X1655088D01*
X1654603Y952717D01*
X1654476Y952079D01*
X1653662Y950861D01*
X1652444Y950047D01*
X1651007Y949761D01*
X1649570Y950047D01*
X1648351Y950861D01*
X1647537Y952079D01*
X1647252Y953516D01*
X1647537Y954953D01*
X1648351Y956171D01*
X1649570Y956985D01*
X1650208Y957112D01*
X1651603Y958508D01*
X1652612Y959181D01*
X1653801Y959418D01*
X1662673D01*
X1663159Y960591D01*
X1646671Y977078D01*
X1600153D01*
X1599612Y976717D01*
X1598175Y976431D01*
X1596738Y976717D01*
X1595520Y977531D01*
X1594705Y978749D01*
X1594420Y980186D01*
X1594705Y981623D01*
X1595520Y982841D01*
X1596738Y983655D01*
X1598175Y983941D01*
X1599612Y983655D01*
X1600153Y983294D01*
X1647959D01*
X1649148Y983057D01*
X1650156Y982383D01*
X1668804Y963736D01*
X1692645D01*
X1693131Y964909D01*
X1680180Y977860D01*
X1679542Y977987D01*
X1678324Y978801D01*
X1677509Y980019D01*
X1677224Y981456D01*
X1677509Y982893D01*
X1678324Y984111D01*
X1679542Y984925D01*
X1680979Y985211D01*
X1682416Y984925D01*
X1683634Y984111D01*
X1684448Y982893D01*
X1684575Y982255D01*
X1698776Y968054D01*
X1801121D01*
X1802310Y967817D01*
X1803318Y967143D01*
X1820367Y950095D01*
X1822190Y950850D01*
X1824743Y951186D01*
X1827295Y950850D01*
X1829674Y949865D01*
X1831716Y948298D01*
X1833284Y946255D01*
X1834269Y943877D01*
X1834605Y941324D01*
X1834269Y938771D01*
X1833284Y936393D01*
X1831716Y934350D01*
X1829674Y932783D01*
X1827295Y931798D01*
X1824743Y931462D01*
X1822190Y931798D01*
X1819812Y932783D01*
X1817769Y934350D01*
X1816202Y936393D01*
X1815216Y938771D01*
X1814880Y941324D01*
X1815216Y943877D01*
X1815972Y945700D01*
X1799834Y961838D01*
X1780565D01*
X1780079Y960665D01*
X1788586Y952158D01*
X1789260Y951149D01*
X1789496Y949960D01*
Y946423D01*
X1790766Y946170D01*
X1790802Y946255D01*
X1792369Y948298D01*
X1794412Y949865D01*
X1796790Y950850D01*
X1799343Y951186D01*
X1801895Y950850D01*
X1804274Y949865D01*
X1806317Y948298D01*
X1807884Y946255D01*
X1808869Y943877D01*
X1809205Y941324D01*
X1808869Y938771D01*
X1808114Y936948D01*
X1812314Y932747D01*
X1812988Y931739D01*
X1813225Y930550D01*
Y916824D01*
X1817145D01*
Y901817D01*
X1818415Y901291D01*
X1821021Y903897D01*
X1822030Y904571D01*
X1823219Y904808D01*
X1865129D01*
X1866318Y904571D01*
X1867326Y903897D01*
X1867579Y903645D01*
X1868752Y904131D01*
Y942196D01*
X1784339Y1026608D01*
X1633953D01*
Y1007500D01*
X1617792D01*
X1589553Y979261D01*
X1589426Y978623D01*
X1588612Y977405D01*
X1587394Y976591D01*
X1585957Y976305D01*
X1584520Y976591D01*
X1583302Y977405D01*
X1582487Y978623D01*
X1582202Y980060D01*
X1582487Y981497D01*
X1583302Y982715D01*
X1584520Y983529D01*
X1585158Y983656D01*
X1613397Y1011895D01*
Y1026608D01*
X1605626D01*
X1605218Y1025406D01*
D02*
G37*
%LPC*%
G36*
X662439Y913130D02*
X674430D01*
X674226Y911582D01*
X673138Y908956D01*
X671408Y906701D01*
X669153Y904971D01*
X666527Y903883D01*
X663709Y903512D01*
X662439D01*
Y913130D01*
D02*
G37*
G36*
X1521721Y901915D02*
X1522185Y901823D01*
X1523655Y900841D01*
X1524638Y899370D01*
X1524730Y898906D01*
X1521721D01*
Y901915D01*
D02*
G37*
G36*
X1598245Y845231D02*
X1632801D01*
Y841561D01*
X1666299D01*
X1666841Y841922D01*
X1668278Y842208D01*
X1669715Y841922D01*
X1670933Y841108D01*
X1671747Y839890D01*
X1672033Y838453D01*
X1671747Y837016D01*
X1670933Y835798D01*
X1669715Y834984D01*
X1668278Y834698D01*
X1666841Y834984D01*
X1666299Y835345D01*
X1632801D01*
Y831675D01*
X1598245D01*
Y845231D01*
D02*
G37*
G36*
X1562794Y845993D02*
X1579564D01*
Y839723D01*
X1562794D01*
Y845993D01*
D02*
G37*
G36*
X1856240Y850266D02*
X1867035D01*
Y839471D01*
X1856240D01*
Y850266D01*
D02*
G37*
G36*
X1562794Y837183D02*
X1579564D01*
Y830913D01*
X1562794D01*
Y837183D01*
D02*
G37*
G36*
X1543484Y845993D02*
X1560254D01*
Y838453D01*
Y830913D01*
X1543484D01*
Y833363D01*
X1542803Y833922D01*
X1541068Y834267D01*
X1539598Y835249D01*
X1538616Y836720D01*
X1538523Y837184D01*
X1542803D01*
Y839724D01*
X1538523D01*
X1538616Y840188D01*
X1539598Y841659D01*
X1541068Y842641D01*
X1542803Y842986D01*
X1543484Y843545D01*
Y845993D01*
D02*
G37*
G36*
X1824489Y853463D02*
X1825188Y852996D01*
X1833509D01*
Y847314D01*
X1836264D01*
X1837453Y847077D01*
X1838461Y846404D01*
X1841731Y843133D01*
X1842905Y843619D01*
Y850266D01*
X1853700D01*
Y838201D01*
Y826136D01*
X1842905D01*
Y835093D01*
X1842269D01*
X1841080Y835330D01*
X1840071Y836003D01*
X1834976Y841098D01*
X1833509D01*
Y835416D01*
X1824489D01*
Y844206D01*
Y853463D01*
D02*
G37*
G36*
X1728477Y951280D02*
X1729958Y951085D01*
X1732522Y950023D01*
X1734724Y948333D01*
X1736413Y946132D01*
X1737475Y943568D01*
X1737670Y942086D01*
X1728477D01*
Y951280D01*
D02*
G37*
G36*
X681477Y981054D02*
X692907D01*
Y972164D01*
X681477D01*
Y981054D01*
D02*
G37*
G36*
X1619023Y939466D02*
X1622639D01*
Y935850D01*
X1621942Y935989D01*
X1620275Y937103D01*
X1619162Y938770D01*
X1619023Y939466D01*
D02*
G37*
G36*
X1622639Y945622D02*
Y942006D01*
X1619023D01*
X1619162Y942703D01*
X1620275Y944370D01*
X1621942Y945484D01*
X1622639Y945622D01*
D02*
G37*
G36*
X1561907Y1016508D02*
X1571605D01*
Y1006810D01*
X1569993Y1007022D01*
X1567307Y1008135D01*
X1565001Y1009904D01*
X1563231Y1012210D01*
X1562119Y1014896D01*
X1561907Y1016508D01*
D02*
G37*
G36*
X1719141Y1015945D02*
X1720578Y1015659D01*
X1721119Y1015298D01*
X1731525D01*
X1732714Y1015061D01*
X1733722Y1014388D01*
X1741975Y1006134D01*
X1742614Y1006007D01*
X1743832Y1005193D01*
X1744646Y1003975D01*
X1744932Y1002538D01*
X1744646Y1001101D01*
X1743832Y999883D01*
X1742614Y999069D01*
X1741177Y998783D01*
X1739740Y999069D01*
X1738522Y999883D01*
X1737707Y1001101D01*
X1737581Y1001739D01*
X1730237Y1009082D01*
X1721119D01*
X1720578Y1008721D01*
X1719141Y1008435D01*
X1717704Y1008721D01*
X1716485Y1009535D01*
X1715671Y1010753D01*
X1715386Y1012190D01*
X1715671Y1013627D01*
X1716485Y1014845D01*
X1717704Y1015659D01*
X1719141Y1015945D01*
D02*
G37*
G36*
X630447Y981054D02*
X641877D01*
Y972164D01*
X630447D01*
Y981054D01*
D02*
G37*
G36*
X1574145Y1016508D02*
X1583843D01*
X1583631Y1014896D01*
X1582518Y1012210D01*
X1580749Y1009904D01*
X1578443Y1008135D01*
X1575757Y1007022D01*
X1574145Y1006810D01*
Y1016508D01*
D02*
G37*
G36*
X662439Y925288D02*
X663709D01*
X666527Y924917D01*
X669153Y923829D01*
X671408Y922099D01*
X673138Y919844D01*
X674226Y917218D01*
X674430Y915670D01*
X662439D01*
Y925288D01*
D02*
G37*
G36*
X658629D02*
X659899D01*
Y915670D01*
X647908D01*
X648112Y917218D01*
X649199Y919844D01*
X650930Y922099D01*
X653185Y923829D01*
X655811Y924917D01*
X658629Y925288D01*
D02*
G37*
G36*
X647908Y913130D02*
X659899D01*
Y903512D01*
X658629D01*
X655811Y903883D01*
X653185Y904971D01*
X650930Y906701D01*
X649199Y908956D01*
X648112Y911582D01*
X647908Y913130D01*
D02*
G37*
G36*
X733354Y925068D02*
X747783D01*
Y910639D01*
X745966Y910818D01*
X742997Y911718D01*
X740261Y913181D01*
X737863Y915149D01*
X735895Y917547D01*
X734433Y920282D01*
X733533Y923251D01*
X733354Y925068D01*
D02*
G37*
G36*
X695447Y981054D02*
X706877D01*
Y972909D01*
X740280Y939505D01*
X742997Y940958D01*
X745966Y941858D01*
X747783Y942037D01*
Y927608D01*
X733354D01*
X733533Y929425D01*
X734433Y932394D01*
X735885Y935110D01*
X708050Y962946D01*
X706877Y962460D01*
Y960734D01*
X697284D01*
Y955040D01*
X697048Y953851D01*
X696374Y952842D01*
X681134Y937602D01*
X680126Y936929D01*
X678937Y936692D01*
X674504D01*
Y929005D01*
X662439D01*
Y939800D01*
Y950595D01*
X674504D01*
Y942908D01*
X677649D01*
X691069Y956327D01*
Y960734D01*
X681477D01*
Y969624D01*
X694177D01*
Y970894D01*
X695447D01*
Y981054D01*
D02*
G37*
G36*
X1728477Y939546D02*
X1737670D01*
X1737475Y938064D01*
X1736413Y935500D01*
X1734724Y933299D01*
X1732522Y931609D01*
X1729958Y930547D01*
X1728477Y930352D01*
Y939546D01*
D02*
G37*
G36*
X1636275Y929466D02*
X1639891D01*
X1639752Y928769D01*
X1638638Y927102D01*
X1636971Y925988D01*
X1636275Y925850D01*
Y929466D01*
D02*
G37*
G36*
X750323Y942037D02*
X752140Y941858D01*
X755108Y940958D01*
X757844Y939495D01*
X760242Y937527D01*
X762210Y935129D01*
X763672Y932394D01*
X764573Y929425D01*
X764752Y927608D01*
X750323D01*
Y942037D01*
D02*
G37*
%LPD*%
D23*
X1823219Y864706D02*
D03*
Y844206D02*
D03*
X1699521Y847762D02*
D03*
Y868262D02*
D03*
D28*
X1823219Y864706D02*
X1797311D01*
X1794721Y862116D01*
X1699521Y842644D02*
X1692029Y835152D01*
X1699521Y842644D02*
Y847762D01*
X1768795Y867116D02*
X1757687D01*
X1755187Y864616D01*
X1743795D01*
X1854970Y838201D02*
X1842269D01*
X1836264Y844206D01*
X1823219D01*
X694177Y1015894D02*
X629177D01*
X1702717Y908050D02*
Y923798D01*
X1701807Y924708D01*
Y940816D01*
X1718795Y882116D02*
X1615447D01*
X1615523Y889253D02*
X1615447D01*
X1731295Y889616D02*
Y917862D01*
X1729309Y919848D01*
X1715128D01*
X1712221Y916940D01*
Y897382D02*
Y916940D01*
Y897382D02*
X1561345D01*
X1561524Y889253D02*
X1561345D01*
X1708029Y820901D02*
Y830326D01*
Y820901D02*
X1707802Y820674D01*
X1590809D01*
X1585983Y825500D01*
Y858520D01*
X1580650Y863853D01*
X1561524D01*
X1809249Y857116D02*
X1768795D01*
X1815719Y850646D02*
X1809249Y857116D01*
X1823219Y844206D02*
Y850646D01*
X1746295Y833120D02*
Y839616D01*
Y833120D02*
X1743501Y830326D01*
X1708029D01*
X1598275Y1017778D02*
X1576177Y995680D01*
X1528211D01*
X1708482Y847762D02*
X1699521D01*
X1711620Y850900D02*
X1708482Y847762D01*
X1711620Y850900D02*
Y877116D01*
X1718795D02*
X1711620D01*
X1854969Y889000D02*
X1830675Y864706D01*
X1823219D01*
X1741177Y1002538D02*
X1731525Y1012190D01*
X1719141D01*
X1636526Y908812D02*
X1631700Y913638D01*
X1631449D01*
X678937Y939800D02*
X661169D01*
X694177Y955040D02*
X678937Y939800D01*
X694177Y955040D02*
Y970894D01*
X661169Y939800D02*
X644417D01*
X629177Y955040D01*
Y970894D01*
X1585729Y924560D02*
X1559059Y951230D01*
X1547375D01*
X1533405Y965200D01*
Y980440D01*
X1530103Y983742D01*
X715631Y1015894D02*
X694177D01*
X1625861Y913892D02*
X1615193Y924560D01*
X1585729D01*
X1751295Y857116D02*
X1743795Y864616D01*
X1768795Y857116D02*
X1751295D01*
X1699521Y868262D02*
X1647451D01*
X1520451Y897636D02*
X777755D01*
X749053Y926338D01*
X1867542Y876173D02*
X1854969Y863600D01*
X1867542Y876173D02*
Y899287D01*
X1865129Y901700D01*
X1823219D01*
X1818901Y897382D01*
X1756525D01*
X1756295Y897152D01*
Y889616D02*
Y897152D01*
X1823219Y864706D02*
Y872236D01*
X1787405D01*
X1791617Y906780D02*
Y907796D01*
X1475747Y916432D02*
X1465841Y926338D01*
X1605795Y916432D02*
X1475747D01*
X1599397Y957834D02*
X1598325Y956763D01*
X1626369Y957834D02*
X1599397D01*
X1699521Y847762D02*
X1658463D01*
X1634243Y871982D01*
X1505121D01*
X1697489Y964946D02*
X1680979Y981456D01*
X1801121Y964946D02*
X1697489D01*
X1824743Y941324D02*
X1801121Y964946D01*
X1647959Y980186D02*
X1598175D01*
X1667517Y960628D02*
X1647959Y980186D01*
X1775721Y960628D02*
X1667517D01*
X1786389Y949960D02*
X1775721Y960628D01*
X1786389Y931418D02*
Y949960D01*
Y931418D02*
X1773689Y918718D01*
X1755909D01*
X1752353Y915162D01*
Y898948D02*
Y915162D01*
Y898948D02*
X1751295Y897890D01*
Y889616D02*
Y897890D01*
X1775594Y884885D02*
X1772825Y882116D01*
X1768795D01*
X1776229Y832358D02*
X1761295D01*
Y839616D01*
X1793247Y884301D02*
X1786062Y877116D01*
X1768795D01*
X1721217Y884538D02*
X1718795Y882116D01*
X1721217Y884538D02*
Y908050D01*
X1652023Y938276D02*
X1645927D01*
X1626369Y957834D01*
X1775213Y940816D02*
X1759719Y956310D01*
X1653801D01*
X1651007Y953516D01*
X1774058Y872116D02*
X1768795D01*
X1776229Y869945D02*
X1774058Y872116D01*
X1776229Y864656D02*
Y869945D01*
Y864656D02*
X1773689Y862116D01*
X1776737Y908304D02*
X1762365D01*
X1598325Y956763D02*
Y961136D01*
X1545597D01*
X1480573Y930542D02*
X1465841Y926338D01*
X1528325Y978294D02*
X1480573Y930542D01*
X661169Y838200D02*
X647199Y840740D01*
Y868680D01*
X653549Y875030D02*
X647199Y868680D01*
X912629Y875030D02*
X653549D01*
X929647Y892048D02*
X912629Y875030D01*
X1536961Y892048D02*
X929647D01*
X1548645Y903732D02*
X1536961Y892048D01*
X1646435Y903732D02*
X1548645D01*
X1694695Y951992D02*
X1646435Y903732D01*
X1707903Y951992D02*
X1694695D01*
X1715015Y944880D02*
X1707903Y951992D01*
X1715015Y926084D02*
Y944880D01*
X1761295Y889616D02*
Y892048D01*
X1773689Y847116D02*
X1768795D01*
X1784103Y832612D02*
X1773689Y847116D01*
X1784103Y832612D02*
X1778769Y827278D01*
X1763783D01*
X1538485Y823468D02*
X797567D01*
X757435Y863600D01*
X661169D01*
Y889000D02*
X631197D01*
X615957Y904240D01*
Y1021080D01*
X621545Y1026668D02*
X615957Y1021080D01*
X1547629Y1029716D02*
X621545Y1026668D01*
X1785627Y1029716D02*
X1547629D01*
X1871860Y943483D02*
X1785627Y1029716D01*
X1871860Y826897D02*
Y943483D01*
Y826897D02*
X1865129Y820166D01*
X1823219D01*
X1791269Y852116D01*
X1768795D01*
X1561524Y838453D02*
X1542804D01*
X1542803Y838454D01*
X749053Y926338D02*
X704497Y970894D01*
X694177D01*
X1743795Y864616D02*
X1741295Y862116D01*
X1718795D01*
X1623675Y1017778D02*
X1585957Y980060D01*
X1668278Y838453D02*
X1615523D01*
X1726295Y896262D02*
X1726191Y896366D01*
X1726295Y889616D02*
Y896262D01*
X1528211Y995680D02*
X1516273Y983742D01*
X747783D02*
X715631Y1015894D01*
X1749813Y940816D02*
X1743865Y934868D01*
Y908304D02*
Y934868D01*
X1810117Y930550D02*
X1799343Y941324D01*
X1810117Y907796D02*
Y930550D01*
X1699521Y840994D02*
Y842644D01*
X1794721Y862116D02*
X1773689D01*
X1768795D01*
X1791617Y906780D02*
X1783595D01*
X1791617Y907796D02*
X1783639Y908068D01*
X1776737Y908304D01*
X1699521Y840994D02*
X1692029Y833502D01*
X1685297Y826770D01*
X1692029Y830326D02*
Y833502D01*
Y835152D01*
X1765561Y892048D02*
X1761295D01*
X1823219Y850646D02*
X1815719D01*
X1561345Y889253D02*
Y897382D01*
X1615447Y882116D02*
Y889253D01*
X1530103Y983742D02*
X1516273D01*
X747783D01*
D29*
X1854969Y889000D02*
D03*
Y863600D02*
D03*
D30*
X1854970Y838201D02*
D03*
D31*
X661169Y914400D02*
D03*
Y889000D02*
D03*
Y863600D02*
D03*
Y838200D02*
D03*
D32*
Y939800D02*
D03*
D33*
X629177Y970894D02*
D03*
X694177D02*
D03*
D34*
X629177Y1015894D02*
D03*
X694177D02*
D03*
D35*
X1623675Y1017778D02*
D03*
D36*
X1598275D02*
D03*
X1572875D02*
D03*
D37*
X831222Y846328D02*
D03*
X1383672Y1006348D02*
D03*
D38*
X749053Y926338D02*
D03*
X1465841D02*
D03*
D39*
X1727207Y940816D02*
D03*
X1701807D02*
D03*
X1775213D02*
D03*
X1749813D02*
D03*
X1824743Y941324D02*
D03*
X1799343D02*
D03*
D40*
X1741177Y1002538D02*
D03*
X1719141Y1012190D02*
D03*
X1636526Y908812D02*
D03*
X1631449Y913638D02*
D03*
X1585729Y924560D02*
D03*
X1625861Y913892D02*
D03*
X1647451Y868262D02*
D03*
X1520451Y897636D02*
D03*
X1787405Y872236D02*
D03*
X1783595Y906780D02*
D03*
X1605795Y916432D02*
D03*
X1598325Y956763D02*
D03*
X1505121Y871982D02*
D03*
X1685297Y826770D02*
D03*
X1680979Y981456D02*
D03*
X1598175Y980186D02*
D03*
X1775594Y884885D02*
D03*
X1776229Y832358D02*
D03*
X1793247Y884301D02*
D03*
X1652023Y938276D02*
D03*
X1626369Y957834D02*
D03*
X1651007Y953516D02*
D03*
X1545597Y961136D02*
D03*
X1528325Y978294D02*
D03*
X1715015Y926084D02*
D03*
X1765561Y892048D02*
D03*
X1763783Y827278D02*
D03*
X1538485Y823468D02*
D03*
X1542803Y838454D02*
D03*
X1585957Y980060D02*
D03*
X1668278Y838453D02*
D03*
X1726191Y896366D02*
D03*
X1528211Y995680D02*
D03*
D41*
X1623909Y940736D02*
D03*
X1635005Y930736D02*
D03*
Y940736D02*
D03*
X1631957Y932688D02*
D03*
D03*
D42*
X1743795Y864616D02*
D03*
D43*
X1761295Y839616D02*
D03*
X1756295D02*
D03*
X1751295D02*
D03*
X1746295D02*
D03*
X1741295D02*
D03*
X1736295D02*
D03*
X1731295D02*
D03*
X1726295D02*
D03*
Y889616D02*
D03*
X1731295D02*
D03*
X1736295D02*
D03*
X1741295D02*
D03*
X1746295D02*
D03*
X1751295D02*
D03*
X1756295D02*
D03*
X1761295D02*
D03*
D44*
X1718795Y847116D02*
D03*
Y852116D02*
D03*
Y857116D02*
D03*
Y862116D02*
D03*
Y867116D02*
D03*
Y872116D02*
D03*
Y877116D02*
D03*
Y882116D02*
D03*
X1768795D02*
D03*
Y877116D02*
D03*
Y872116D02*
D03*
Y867116D02*
D03*
Y862116D02*
D03*
Y857116D02*
D03*
Y852116D02*
D03*
Y847116D02*
D03*
D45*
X1615523Y838453D02*
D03*
Y863853D02*
D03*
Y889253D02*
D03*
X1561524D02*
D03*
Y863853D02*
D03*
Y838453D02*
D03*
D46*
X1708029Y830326D02*
D03*
X1692029D02*
D03*
D47*
X1762365Y908304D02*
D03*
X1743865D02*
D03*
X1791617Y907796D02*
D03*
X1810117D02*
D03*
X1721217Y908050D02*
D03*
X1702717D02*
D03*
M02*
